<svg width="497" height="399" viewBox="0 0 497 399" fill="none" xmlns="http://www.w3.org/2000/svg">
<path d="M263.538 374.384C263.538 378.59 258.045 382 251.269 382C244.493 382 239 378.59 239 374.384C239 370.179 244.493 366.769 251.269 366.769C258.045 366.769 263.538 370.179 263.538 374.384Z" fill="#00041A"/>
<rect x="239" y="371.121" width="24.5385" height="3.36264" fill="#00041A"/>
<path d="M263.038 371.615C263.038 373.482 261.818 375.249 259.681 376.575C257.552 377.897 254.579 378.731 251.269 378.731C247.959 378.731 244.986 377.897 242.857 376.575C240.721 375.249 239.5 373.482 239.5 371.615C239.5 369.749 240.721 367.982 242.857 366.655C244.986 365.334 247.959 364.5 251.269 364.5C254.579 364.5 257.552 365.334 259.681 366.655C261.818 367.982 263.038 369.749 263.038 371.615Z" fill="white" stroke="#00041A"/>
<path d="M263.538 369.384C263.538 373.59 258.045 377 251.269 377C244.493 377 239 373.59 239 369.384C239 365.179 244.493 361.769 251.269 361.769C258.045 361.769 263.538 365.179 263.538 369.384Z" fill="#00041A"/>
<rect x="239" y="366.121" width="24.5385" height="3.36264" fill="#00041A"/>
<path d="M263.038 366.615C263.038 368.482 261.818 370.249 259.681 371.575C257.552 372.897 254.579 373.731 251.269 373.731C247.959 373.731 244.986 372.897 242.857 371.575C240.721 370.249 239.5 368.482 239.5 366.615C239.5 364.749 240.721 362.982 242.857 361.655C244.986 360.334 247.959 359.5 251.269 359.5C254.579 359.5 257.552 360.334 259.681 361.655C261.818 362.982 263.038 364.749 263.038 366.615Z" fill="white" stroke="#00041A"/>
<path d="M263.538 364.384C263.538 368.59 258.045 372 251.269 372C244.493 372 239 368.59 239 364.384C239 360.179 244.493 356.769 251.269 356.769C258.045 356.769 263.538 360.179 263.538 364.384Z" fill="#00041A"/>
<rect x="239" y="361.121" width="24.5385" height="3.36264" fill="#00041A"/>
<path d="M263.038 361.615C263.038 363.482 261.818 365.249 259.681 366.575C257.552 367.897 254.579 368.731 251.269 368.731C247.959 368.731 244.986 367.897 242.857 366.575C240.721 365.249 239.5 363.482 239.5 361.615C239.5 359.749 240.721 357.982 242.857 356.655C244.986 355.334 247.959 354.5 251.269 354.5C254.579 354.5 257.552 355.334 259.681 356.655C261.818 357.982 263.038 359.749 263.038 361.615Z" fill="white" stroke="#00041A"/>
<path d="M263.538 359.384C263.538 363.59 258.045 367 251.269 367C244.493 367 239 363.59 239 359.384C239 355.179 244.493 351.769 251.269 351.769C258.045 351.769 263.538 355.179 263.538 359.384Z" fill="#00041A"/>
<rect x="239" y="356.121" width="24.5385" height="3.36264" fill="#00041A"/>
<path d="M263.038 356.615C263.038 358.482 261.818 360.249 259.681 361.575C257.552 362.897 254.579 363.731 251.269 363.731C247.959 363.731 244.986 362.897 242.857 361.575C240.721 360.249 239.5 358.482 239.5 356.615C239.5 354.749 240.721 352.982 242.857 351.655C244.986 350.334 247.959 349.5 251.269 349.5C254.579 349.5 257.552 350.334 259.681 351.655C261.818 352.982 263.038 354.749 263.038 356.615Z" fill="white" stroke="#00041A"/>
<path d="M282.538 383.384C282.538 387.59 277.045 391 270.269 391C263.493 391 258 387.59 258 383.384C258 379.179 263.493 375.769 270.269 375.769C277.045 375.769 282.538 379.179 282.538 383.384Z" fill="#00041A"/>
<rect x="258" y="380.121" width="24.5385" height="3.36264" fill="#00041A"/>
<path d="M282.038 380.615C282.038 382.482 280.818 384.249 278.681 385.575C276.552 386.897 273.579 387.731 270.269 387.731C266.959 387.731 263.986 386.897 261.857 385.575C259.721 384.249 258.5 382.482 258.5 380.615C258.5 378.749 259.721 376.982 261.857 375.655C263.986 374.334 266.959 373.5 270.269 373.5C273.579 373.5 276.552 374.334 278.681 375.655C280.818 376.982 282.038 378.749 282.038 380.615Z" fill="white" stroke="#00041A"/>
<path d="M282.538 378.384C282.538 382.59 277.045 386 270.269 386C263.493 386 258 382.59 258 378.384C258 374.179 263.493 370.769 270.269 370.769C277.045 370.769 282.538 374.179 282.538 378.384Z" fill="#00041A"/>
<rect x="258" y="375.121" width="24.5385" height="3.36264" fill="#00041A"/>
<path d="M282.038 375.615C282.038 377.482 280.818 379.249 278.681 380.575C276.552 381.897 273.579 382.731 270.269 382.731C266.959 382.731 263.986 381.897 261.857 380.575C259.721 379.249 258.5 377.482 258.5 375.615C258.5 373.749 259.721 371.982 261.857 370.655C263.986 369.334 266.959 368.5 270.269 368.5C273.579 368.5 276.552 369.334 278.681 370.655C280.818 371.982 282.038 373.749 282.038 375.615Z" fill="white" stroke="#00041A"/>
<path d="M282.538 373.384C282.538 377.59 277.045 381 270.269 381C263.493 381 258 377.59 258 373.384C258 369.179 263.493 365.769 270.269 365.769C277.045 365.769 282.538 369.179 282.538 373.384Z" fill="#00041A"/>
<rect x="258" y="370.121" width="24.5385" height="3.36264" fill="#00041A"/>
<path d="M282.038 370.615C282.038 372.482 280.818 374.249 278.681 375.575C276.552 376.897 273.579 377.731 270.269 377.731C266.959 377.731 263.986 376.897 261.857 375.575C259.721 374.249 258.5 372.482 258.5 370.615C258.5 368.749 259.721 366.982 261.857 365.655C263.986 364.334 266.959 363.5 270.269 363.5C273.579 363.5 276.552 364.334 278.681 365.655C280.818 366.982 282.038 368.749 282.038 370.615Z" fill="white" stroke="#00041A"/>
<path d="M282.538 368.384C282.538 372.59 277.045 376 270.269 376C263.493 376 258 372.59 258 368.384C258 364.179 263.493 360.769 270.269 360.769C277.045 360.769 282.538 364.179 282.538 368.384Z" fill="#00041A"/>
<rect x="258" y="365.121" width="24.5385" height="3.36264" fill="#00041A"/>
<path d="M282.038 365.615C282.038 367.482 280.818 369.249 278.681 370.575C276.552 371.897 273.579 372.731 270.269 372.731C266.959 372.731 263.986 371.897 261.857 370.575C259.721 369.249 258.5 367.482 258.5 365.615C258.5 363.749 259.721 361.982 261.857 360.655C263.986 359.334 266.959 358.5 270.269 358.5C273.579 358.5 276.552 359.334 278.681 360.655C280.818 361.982 282.038 363.749 282.038 365.615Z" fill="white" stroke="#00041A"/>
<path fill-rule="evenodd" clip-rule="evenodd" d="M431.326 32.1392H370.065L370.064 205.358C351.039 211.829 334.727 224.161 323.28 240.2C312.192 255.736 305.669 274.751 305.669 295.289C305.669 321.514 316.306 345.257 333.502 362.444C350.698 379.631 374.455 390.261 400.696 390.261C426.936 390.261 450.693 379.631 467.889 362.444C485.085 345.257 495.722 321.514 495.722 295.289C495.722 274.751 489.199 255.736 478.111 240.2C466.664 224.161 450.352 211.829 431.327 205.358L431.326 32.1392Z" fill="white" stroke="#00041A" stroke-width="0.83688"/>
<path fill-rule="evenodd" clip-rule="evenodd" d="M400.557 370.643C442.28 370.643 476.104 336.878 476.104 295.226C476.104 275.905 465.922 308.57 453.954 295.226C440.121 279.802 422.927 309.383 400.557 309.383C378.966 309.383 352.091 289.988 345.724 285.457C339.356 280.926 325.009 275.127 325.009 295.226C325.009 336.878 358.833 370.643 400.557 370.643Z" fill="#4E66DE"/>
<path d="M448.556 11.687H352.835V32.0001H448.556V11.687Z" fill="white" stroke="#00041A" stroke-width="0.83688"/>
<path fill-rule="evenodd" clip-rule="evenodd" d="M28.7712 225.574C40.9615 237.281 55.9208 246.237 71.9406 251.609L64.2781 274.789C49.013 269.739 34.7276 261.893 22.0495 252.038C21.0219 251.562 20.9657 252.873 19.4595 253.965C14.2398 259.115 6.0406 258.145 1.15796 252.803L28.7712 225.574Z" fill="white"/>
<path fill-rule="evenodd" clip-rule="evenodd" d="M64.7193 275.516C49.1634 270.465 34.6029 262.499 21.7071 252.478C16.3456 259.437 6.72807 260.121 0 252.418C6.45843 246.343 22.432 231.319 29.0643 225.081C41.3226 236.891 56.443 245.913 72.6094 251.24L64.7193 275.516ZM63.8422 274.063L71.2662 251.978C55.4696 246.583 40.7371 237.744 28.6447 226.234C22.6093 232.315 7.98943 247.045 2.12842 252.95C7.74122 258.635 16.1948 257.713 20.768 251.76C21.1409 251.263 21.9136 251.207 22.3917 251.6C24.7201 253.402 27.0806 255.157 29.5132 256.805C36.7911 261.803 44.5078 266.12 52.5977 269.692C56.1878 271.293 60.1197 272.81 63.8422 274.063Z" fill="#00041A"/>
<path fill-rule="evenodd" clip-rule="evenodd" d="M4.38998 255.574L3.5769 254.815L29.906 226.652L30.719 227.412L4.38998 255.574Z" fill="#00041A"/>
<path fill-rule="evenodd" clip-rule="evenodd" d="M22.8745 252.682C19.6678 250.21 16.6005 247.657 13.6245 244.882Z" fill="white"/>
<path fill-rule="evenodd" clip-rule="evenodd" d="M22.874 253.239C22.7555 253.239 22.6359 253.201 22.5346 253.123C19.0816 250.461 16.0427 247.898 13.2448 245.289C13.02 245.079 13.0078 244.727 13.2176 244.502C13.4271 244.277 13.7791 244.265 14.0039 244.475C16.7762 247.06 19.789 249.601 23.2144 252.242C23.4576 252.429 23.5029 252.779 23.3151 253.022C23.2055 253.164 23.0407 253.239 22.874 253.239Z" fill="#00041A"/>
<path fill-rule="evenodd" clip-rule="evenodd" d="M17.3593 255.423C14.7779 253.357 12.2521 251.209 9.82788 248.943Z" fill="white"/>
<path fill-rule="evenodd" clip-rule="evenodd" d="M160.739 389.718C161.084 370.046 162.151 350.43 163.766 330.827L188.094 332.86C186.876 347.551 186.007 362.284 185.486 377.013C185.47 377.33 185.758 377.603 186.073 377.584C192.008 377.602 199.9 382.167 199.515 390.222L160.739 389.718Z" fill="white"/>
<path fill-rule="evenodd" clip-rule="evenodd" d="M188.693 332.358C187.458 347.199 186.566 362.159 186.042 377.032C192.469 377.064 200.643 381.974 200.074 390.695C191.208 390.616 169.28 390.419 160.175 390.337C160.5 370.288 161.606 350.202 163.257 330.216L188.693 332.358ZM187.496 333.364L164.276 331.438C162.699 350.636 161.664 369.878 161.304 389.139C169.871 389.266 190.622 389.574 198.942 389.697C199.067 382.199 191.399 378.132 186.054 378.136C185.443 378.151 184.897 377.608 184.929 376.994C185.446 362.44 186.296 347.881 187.496 333.364Z" fill="#00041A"/>
<path fill-rule="evenodd" clip-rule="evenodd" d="M185.52 376.033C185.392 379.786 185.272 383.544 185.2 387.282Z" fill="white"/>
<path fill-rule="evenodd" clip-rule="evenodd" d="M185.2 387.839C185.196 387.839 185.193 387.839 185.189 387.839C184.882 387.833 184.637 387.579 184.643 387.271C184.717 383.477 184.841 379.618 184.964 376.014C184.975 375.707 185.231 375.471 185.539 375.477C185.847 375.487 186.087 375.745 186.076 376.052C185.954 379.652 185.83 383.506 185.756 387.293C185.75 387.597 185.502 387.839 185.2 387.839Z" fill="#00041A"/>
<path fill-rule="evenodd" clip-rule="evenodd" d="M190.996 378.651C190.917 381.223 190.802 384.863 190.758 387.393Z" fill="white"/>
<path fill-rule="evenodd" clip-rule="evenodd" d="M190.758 387.95C190.754 387.95 190.751 387.95 190.748 387.95C190.441 387.944 190.196 387.691 190.201 387.384C190.242 385.073 190.339 381.894 190.418 379.339L190.439 378.634C190.449 378.327 190.706 378.086 191.013 378.095C191.32 378.104 191.561 378.361 191.552 378.668L191.53 379.373C191.452 381.925 191.355 385.1 191.314 387.403C191.309 387.707 191.061 387.95 190.758 387.95Z" fill="#00041A"/>
<path fill-rule="evenodd" clip-rule="evenodd" d="M194.135 365.732L155.952 363.911C157.515 328.86 161.34 293.799 167.35 259.193C171.677 232.601 176.156 206.088 180.721 179.582C182.515 169.167 192.422 162.188 202.82 164.009C213.217 165.833 220.179 175.702 218.393 186.075C212.718 219.073 207.139 252.08 201.909 285.119C197.794 311.701 195.438 338.846 194.135 365.732Z" fill="#4E66DE"/>
<path fill-rule="evenodd" clip-rule="evenodd" d="M160.903 364.703C160.896 364.703 160.889 364.703 160.882 364.703C160.574 364.691 160.335 364.433 160.347 364.125C162.395 311.07 171.663 257.838 180.626 206.357C182.874 193.446 185.198 180.096 187.369 166.973C187.419 166.67 187.705 166.464 188.009 166.515C188.312 166.565 188.517 166.852 188.467 167.155C186.296 180.283 183.971 193.635 181.723 206.548C172.766 257.992 163.504 311.188 161.459 364.168C161.448 364.468 161.201 364.703 160.903 364.703Z" fill="#00041A"/>
<path fill-rule="evenodd" clip-rule="evenodd" d="M170.33 365.153C170.323 365.153 170.315 365.153 170.308 365.153C170.001 365.14 169.762 364.882 169.774 364.574C171.883 311.11 181.272 257.41 190.353 205.479C192.782 191.586 195.294 177.22 197.623 163.105C197.673 162.802 197.96 162.596 198.263 162.647C198.566 162.697 198.771 162.983 198.721 163.286C196.392 177.406 193.879 191.775 191.45 205.671C182.375 257.566 172.992 311.228 170.886 364.618C170.874 364.918 170.627 365.153 170.33 365.153Z" fill="#00041A"/>
<path fill-rule="evenodd" clip-rule="evenodd" d="M179.757 365.603C179.749 365.603 179.742 365.603 179.734 365.603C179.427 365.59 179.188 365.331 179.2 365.024C181.3 312.008 190.609 258.792 199.612 207.327C202.055 193.363 204.581 178.922 206.919 164.732C206.969 164.429 207.256 164.223 207.559 164.273C207.862 164.323 208.067 164.61 208.017 164.913C205.678 179.109 203.152 193.552 200.708 207.519C191.712 258.948 182.409 312.127 180.313 365.068C180.301 365.368 180.054 365.603 179.757 365.603Z" fill="#00041A"/>
<path fill-rule="evenodd" clip-rule="evenodd" d="M189.184 366.053C189.176 366.053 189.169 366.053 189.162 366.053C188.854 366.04 188.615 365.782 188.627 365.474C190.643 313.782 199.664 262.032 208.389 211.986C210.683 198.824 213.056 185.215 215.263 171.824C215.313 171.52 215.599 171.315 215.903 171.365C216.206 171.415 216.411 171.701 216.361 172.005C214.153 185.4 211.78 199.013 209.486 212.177C200.767 262.187 191.752 313.9 189.739 365.518C189.728 365.818 189.481 366.053 189.184 366.053Z" fill="#00041A"/>
<path fill-rule="evenodd" clip-rule="evenodd" d="M199.303 388.121L160.758 387.35L160.78 386.237L199.325 387.009L199.303 388.121Z" fill="#00041A"/>
<path fill-rule="evenodd" clip-rule="evenodd" d="M146.817 176.428C146.944 135.229 220.718 135.233 220.838 176.43C220.71 217.627 146.937 217.623 146.817 176.428Z" fill="#00041A"/>
<path fill-rule="evenodd" clip-rule="evenodd" d="M27.7109 266.099L48.5563 234.056C64.566 244.527 83.5331 251.099 102.749 250.974C110.674 250.896 119.143 250.229 125.392 244.825C137.786 233.919 141.818 216.411 144.528 200.247C145.479 193.87 146.076 187.301 146.359 180.686C146.834 170.338 154.919 161.816 165.345 161.075C176.83 160.209 185.139 170.899 184.551 182.311C183.321 206.753 179.441 231.272 167.207 253.165C158.137 269.646 142.208 283.189 123.481 287.155C90.4265 293.671 55.5843 284.301 27.7109 266.099Z" fill="#00041A"/>
<path fill-rule="evenodd" clip-rule="evenodd" d="M319.509 24.92C319.525 24.9125 320.4 24.5351 321.302 23.9488C321.753 23.6542 322.213 23.3091 322.584 22.9065C322.769 22.7047 322.933 22.4874 323.057 22.2442C323.181 22.0021 323.265 21.7289 323.265 21.4345C323.267 21.1348 323.171 20.824 322.99 20.5554C322.832 20.3192 322.616 20.1113 322.346 19.9227C321.873 19.5935 321.233 19.3141 320.362 19.062C319.056 18.6855 317.228 18.3758 314.684 18.1563C312.14 17.937 308.883 17.8096 304.734 17.8096C301.704 17.8096 298.198 17.8777 294.149 18.028C293.842 18.0394 293.602 18.2979 293.614 18.6051C293.625 18.912 293.884 19.1519 294.191 19.1405C298.228 18.9902 301.721 18.9226 304.734 18.9226C311.917 18.9218 316.388 19.31 319.008 19.8723C320.317 20.1506 321.161 20.4786 321.625 20.7794C321.859 20.9289 321.994 21.0672 322.064 21.1735C322.135 21.2817 322.15 21.3529 322.152 21.4345C322.152 21.5141 322.129 21.614 322.066 21.7389C321.957 21.957 321.719 22.2297 321.414 22.4871C320.956 22.8764 320.361 23.2379 319.887 23.493C319.649 23.6213 319.442 23.7237 319.295 23.7936C319.221 23.8286 319.163 23.8553 319.124 23.8732L319.08 23.8929L319.069 23.8974L319.067 23.8985C318.785 24.0206 318.655 24.3481 318.777 24.6303C318.899 24.9125 319.227 25.0421 319.509 24.92Z" fill="#00041A"/>
<path fill-rule="evenodd" clip-rule="evenodd" d="M319.543 24.9038C319.565 24.8918 319.921 24.7093 320.303 24.3893C320.494 24.2281 320.693 24.0325 320.859 23.7879C321.022 23.545 321.158 23.2392 321.159 22.88C321.161 22.5817 321.054 22.267 320.855 22.0004C320.681 21.765 320.443 21.5577 320.14 21.3654C319.608 21.0298 318.866 20.7321 317.812 20.4558C316.232 20.0431 313.947 19.6858 310.649 19.4281C307.352 19.1708 303.044 19.0146 297.431 19.0146C297.123 19.0146 296.874 19.264 296.874 19.5712C296.874 19.8786 297.123 20.1277 297.431 20.1277C307.168 20.1269 312.941 20.6021 316.228 21.2402C317.87 21.5568 318.891 21.9205 319.446 22.2458C319.724 22.4072 319.882 22.5552 319.959 22.6607C320.036 22.7689 320.043 22.8238 320.046 22.88C320.046 22.9454 320.018 23.0433 319.935 23.1669C319.814 23.3508 319.582 23.5556 319.381 23.6961C319.281 23.7671 319.19 23.8241 319.126 23.8622C319.094 23.8812 319.068 23.8953 319.052 23.9045L319.034 23.914L319.031 23.9157L319.124 24.0929L319.032 23.9151L319.031 23.9157L319.124 24.0929L319.032 23.9151C318.759 24.0562 318.652 24.392 318.793 24.6653C318.935 24.9383 319.271 25.0451 319.544 24.9038H319.543Z" fill="#00041A"/>
<path fill-rule="evenodd" clip-rule="evenodd" d="M313.814 22.875C313.814 35.5086 303.572 45.75 290.939 45.75C278.305 45.75 268.064 35.5086 268.064 22.875C268.064 10.2414 278.305 0 290.939 0C303.572 0 313.814 10.2414 313.814 22.875Z" fill="#4E66DE"/>
<path fill-rule="evenodd" clip-rule="evenodd" d="M265.6 26.5019C265.583 26.5094 264.709 26.8864 263.807 27.473C263.355 27.7677 262.895 28.1127 262.525 28.5151C262.339 28.7171 262.175 28.9344 262.051 29.1773C261.927 29.4194 261.843 29.693 261.843 29.9871C261.841 30.287 261.937 30.5979 262.118 30.8661C262.276 31.1024 262.493 31.3102 262.762 31.4989C263.235 31.8281 263.875 32.1074 264.746 32.3595C266.052 32.736 267.88 33.0454 270.424 33.2653C272.968 33.4845 276.225 33.6117 280.374 33.6117C283.404 33.6117 286.91 33.5438 290.959 33.3938C291.266 33.3824 291.506 33.1242 291.495 32.8173C291.484 32.5101 291.225 32.2702 290.918 32.2816C286.88 32.4313 283.388 32.4989 280.374 32.4989C273.191 32.4998 268.72 32.1116 266.1 31.5492C264.791 31.271 263.947 30.9429 263.483 30.6421C263.25 30.4927 263.114 30.3547 263.044 30.2481C262.974 30.1401 262.958 30.0689 262.956 29.9871C262.956 29.9078 262.979 29.8079 263.043 29.6829C263.151 29.4648 263.39 29.1918 263.695 28.9344C264.152 28.5454 264.747 28.1837 265.222 27.9285C265.459 27.8005 265.667 27.6981 265.814 27.6283C265.887 27.5932 265.945 27.5665 265.985 27.5487L266.029 27.5289L266.039 27.5245L266.042 27.5234C266.324 27.4012 266.453 27.0737 266.331 26.7918C266.209 26.5097 265.882 26.38 265.6 26.5019H265.6Z" fill="#00041A"/>
<path fill-rule="evenodd" clip-rule="evenodd" d="M265.565 26.5183C265.543 26.5303 265.187 26.7128 264.805 27.0325C264.614 27.1936 264.415 27.3892 264.249 27.6341C264.086 27.877 263.95 28.1826 263.949 28.5421C263.947 28.8404 264.054 29.1548 264.253 29.4214C264.427 29.6571 264.665 29.8641 264.968 30.0567C265.5 30.3922 266.242 30.6897 267.296 30.9663C268.876 31.379 271.161 31.736 274.459 31.9939C277.756 32.2513 282.065 32.4074 287.678 32.4074C287.985 32.4074 288.234 32.1581 288.234 31.8509C288.234 31.5434 287.985 31.2944 287.678 31.2944C277.94 31.2952 272.168 30.8199 268.879 30.1816C267.237 29.8649 266.217 29.5012 265.662 29.176C265.384 29.0148 265.226 28.8665 265.149 28.7611C265.072 28.6528 265.065 28.5983 265.062 28.5421C265.061 28.4767 265.09 28.3787 265.173 28.2552C265.294 28.0713 265.526 27.8665 265.727 27.7259C265.827 27.655 265.918 27.5979 265.983 27.5598C266.015 27.5409 266.04 27.5267 266.056 27.5178L266.074 27.5081L266.077 27.5067L265.994 27.3489L266.076 27.507L266.077 27.5067L265.994 27.3489L266.076 27.507C266.349 27.3659 266.456 27.03 266.315 26.757C266.174 26.4841 265.838 26.3772 265.565 26.5183Z" fill="#00041A"/>
<path fill-rule="evenodd" clip-rule="evenodd" d="M267.393 60.2031L292.161 59.183C294.517 59.0828 296.513 60.9633 296.591 63.392C296.659 65.1729 296.695 66.964 296.747 68.7496C296.779 70.5422 296.825 72.3297 296.839 74.1284C296.887 77.7183 296.882 81.3259 296.827 84.9511L270.443 84.5498C268.965 84.5242 267.799 83.3625 267.802 81.9425C267.831 79.079 267.804 76.1964 267.77 73.3126C267.734 71.1343 267.69 68.9539 267.625 66.7681C267.69 68.9539 267.734 71.1343 267.77 73.3126C265.911 73.3395 264.492 72.6319 263.527 71.4774C263.045 70.9 262.678 70.2111 262.425 69.4428C262.167 68.6728 262.025 67.8244 262.001 66.9301C261.955 65.1423 262.363 63.5002 263.266 62.2873C264.161 61.0721 265.533 60.2799 267.393 60.2031Z" fill="white"/>
<path fill-rule="evenodd" clip-rule="evenodd" d="M267.393 60.2031L292.161 59.183C294.517 59.0828 296.513 60.9633 296.591 63.392C296.659 65.1729 296.695 66.964 296.747 68.7496C296.779 70.5422 296.825 72.3297 296.839 74.1284C296.887 77.7183 296.882 81.3259 296.827 84.9511L270.443 84.5498C268.965 84.5242 267.799 83.3625 267.802 81.9425C267.831 79.079 267.804 76.1964 267.77 73.3126C267.734 71.1343 267.69 68.9539 267.625 66.7681C267.69 68.9539 267.734 71.1343 267.77 73.3126C265.911 73.3395 264.492 72.6319 263.527 71.4774C263.045 70.9 262.678 70.2111 262.425 69.4428C262.167 68.6728 262.025 67.8244 262.001 66.9301C261.955 65.1423 262.363 63.5002 263.266 62.2873C264.161 61.0721 265.533 60.2799 267.393 60.2031Z" stroke="#00041A" stroke-width="1.11584" stroke-linecap="round" stroke-linejoin="round"/>
<path fill-rule="evenodd" clip-rule="evenodd" d="M289.931 60.897C289.768 56.732 289.561 52.5753 289.325 48.4248C289.19 46.2243 290.548 44.3457 292.358 44.2283C294.168 44.1114 295.747 45.8189 295.882 48.043C296.18 53.1786 296.423 58.3303 296.595 63.5046" fill="white"/>
<path d="M289.931 60.897C289.768 56.732 289.561 52.5753 289.325 48.4248C289.19 46.2243 290.548 44.3457 292.358 44.2283C294.168 44.1114 295.747 45.8189 295.882 48.043C296.18 53.1786 296.423 58.3303 296.595 63.5046" stroke="#00041A" stroke-width="1.11584" stroke-linecap="round" stroke-linejoin="round"/>
<path fill-rule="evenodd" clip-rule="evenodd" d="M301.37 84.4305C301.261 92.374 300.917 100.417 300.046 108.739C299.543 113.425 298.886 118.192 297.867 123.17C297.351 125.663 296.75 128.205 295.993 130.835L295.699 131.828C295.594 132.175 295.526 132.424 295.35 132.963L294.88 134.382C294.715 134.859 294.566 135.31 294.369 135.813L293.808 137.289C293.619 137.78 293.444 138.278 293.224 138.753L292.595 140.194L292.28 140.914L291.933 141.614C291.467 142.545 291.022 143.492 290.496 144.379L289.736 145.73C289.466 146.167 289.193 146.602 288.917 147.033C288.373 147.905 287.769 148.719 287.171 149.54C286.87 149.948 286.548 150.334 286.233 150.728C285.915 151.118 285.599 151.511 285.262 151.879C282.618 154.89 279.545 157.414 276.107 159.315C274.391 160.269 272.581 161.052 270.716 161.675C268.85 162.293 266.924 162.726 264.98 162.992C263.032 163.239 261.066 163.332 259.1 163.233C257.134 163.131 255.17 162.859 253.221 162.43C249.323 161.58 245.491 160.062 241.837 158.073C241.375 157.84 240.931 157.558 240.477 157.302C240.025 157.042 239.572 156.782 239.132 156.496L237.8 155.659C237.362 155.37 236.926 155.076 236.492 154.777C236.058 154.48 235.629 154.174 235.203 153.865L234.565 153.397L233.955 152.939L232.831 152.073L232.34 151.684L231.935 151.356C229.775 149.608 227.815 147.841 225.958 146.064C224.099 144.287 222.368 142.5 220.7 140.704C217.374 137.111 214.337 133.485 211.46 129.826C208.583 126.167 205.872 122.476 203.264 118.748C200.052 114.153 199.136 108.706 200.236 103.777C201.331 98.8419 204.86 85.148 215.112 85.148C225.364 85.148 232.664 92.3478 235.412 96.2783C237.648 99.4752 239.944 102.598 242.294 105.584C244.641 108.571 247.045 111.428 249.468 114.044C250.679 115.347 251.894 116.6 253.097 117.747C254.298 118.897 255.491 119.965 256.628 120.882L256.841 121.056L256.939 121.134L256.976 121.16C257.025 121.195 257.073 121.232 257.118 121.272C257.149 121.301 257.143 121.294 257.148 121.298L257.156 121.304L257.174 121.318L257.247 121.367C257.297 121.397 257.349 121.424 257.405 121.444C257.515 121.489 257.642 121.478 257.742 121.416C257.84 121.349 257.902 121.242 257.948 121.136L257.979 121.053C257.981 121.061 257.985 120.999 257.994 120.971C258.003 120.937 258.015 120.904 258.031 120.872C258.033 120.905 258.105 120.645 258.153 120.484L258.311 119.953C258.726 118.51 259.105 116.929 259.447 115.277C260.13 111.96 260.643 108.34 261.041 104.619C261.74 97.9773 262.059 90.9832 262.152 83.8984L301.37 84.4305Z" fill="#00041A"/>
<path fill-rule="evenodd" clip-rule="evenodd" d="M215.047 83.3327C215.047 90.3215 206.189 95.9872 191.486 95.9872C176.784 95.9872 161.805 90.3215 161.805 83.3327C161.805 76.3439 173.723 70.6782 188.426 70.6782C203.128 70.6782 215.047 76.3439 215.047 83.3327Z" fill="#4E66DE"/>
<path fill-rule="evenodd" clip-rule="evenodd" d="M231.345 174.868C231.629 177.908 229.237 180.533 226.184 180.533H143.892C141.203 180.533 138.929 178.542 138.574 175.877L142.833 101.374C142.344 97.7032 137.733 94.3495 140.353 92.2511C144.089 89.2599 152.291 84.5146 157.594 84.5146H211.417C212.102 84.5146 212.815 84.5611 213.547 84.6507C224.38 85.978 232.151 95.7714 231.319 106.653L231.345 174.868Z" fill="#4E66DE"/>
<path d="M214.902 84.8631C213.702 91.1301 205.099 95.9872 191.487 95.9872C177.705 95.9872 163.681 91.0091 161.977 84.6294" stroke="#00041A" stroke-width="1.11584" stroke-linecap="round" stroke-linejoin="round"/>
<path d="M174.151 139.287L171.393 165.159H221.951L219.111 139.287" stroke="#00041A" stroke-width="1.11584" stroke-linecap="round" stroke-linejoin="round"/>
<path d="M192.231 101.005V130.558" stroke="#00041A" stroke-width="1.11584" stroke-linecap="round" stroke-linejoin="round"/>
<path d="M202.654 101.005V130.558" stroke="#00041A" stroke-width="1.11584" stroke-linecap="round" stroke-linejoin="round"/>
<path fill-rule="evenodd" clip-rule="evenodd" d="M99.2254 253.592L121.153 251.742C123.503 251.54 125.273 249.518 125.107 247.227C124.874 243.851 124.565 240.472 124.483 237.1L124.283 232.04C124.222 230.353 124.124 228.664 124.143 226.983L97.8708 227.425L97.88 229.074C97.887 229.623 97.9187 230.168 97.9365 230.715L98.0651 233.994L98.3255 240.551C98.3506 241.097 98.3617 241.646 98.3987 242.189L98.5161 243.818L98.7515 247.076L99.2254 253.592Z" fill="white"/>
<path fill-rule="evenodd" clip-rule="evenodd" d="M99.2254 253.592L121.153 251.742C123.503 251.54 125.273 249.518 125.107 247.227C124.874 243.851 124.565 240.472 124.483 237.1L124.283 232.04C124.222 230.353 124.124 228.664 124.143 226.983L97.8708 227.425L97.88 229.074C97.887 229.623 97.9187 230.168 97.9365 230.715L98.0651 233.994L98.3255 240.551C98.3506 241.097 98.3617 241.646 98.3987 242.189L98.5161 243.818L98.7515 247.076L99.2254 253.592Z" stroke="#00041A" stroke-width="1.11584" stroke-linecap="round" stroke-linejoin="round"/>
<path fill-rule="evenodd" clip-rule="evenodd" d="M118.748 250.356L118.968 253.403L119.281 256.444L119.914 262.526C120.139 264.682 121.781 266.255 123.582 266.039C125.383 265.824 126.665 263.932 126.445 261.813L125.679 254.468C125.62 253.856 125.54 253.244 125.498 252.631L125.365 250.795L125.099 247.121" fill="white"/>
<path d="M118.748 250.356L118.968 253.403L119.281 256.444L119.914 262.526C120.139 264.682 121.781 266.255 123.582 266.039C125.383 265.824 126.665 263.932 126.445 261.813L125.679 254.468C125.62 253.856 125.54 253.244 125.498 252.631L125.365 250.795L125.099 247.121" stroke="#00041A" stroke-width="1.11584" stroke-linecap="round" stroke-linejoin="round"/>
<path fill-rule="evenodd" clip-rule="evenodd" d="M118.748 250.355L118.969 253.402L119.281 256.444L119.914 262.525C120.138 264.676 118.86 266.594 117.059 266.809C115.257 267.025 113.612 265.426 113.385 263.238L112.742 257.065L112.425 253.979L112.2 250.881" fill="white"/>
<path d="M118.748 250.355L118.969 253.402L119.281 256.444L119.914 262.525C120.138 264.676 118.86 266.594 117.059 266.809C115.257 267.025 113.612 265.426 113.385 263.238L112.742 257.065L112.425 253.979L112.2 250.881" stroke="#00041A" stroke-width="1.11584" stroke-linecap="round" stroke-linejoin="round"/>
<path fill-rule="evenodd" clip-rule="evenodd" d="M112.2 250.881L112.425 253.979L112.742 257.065L113.384 263.238C113.612 265.42 112.336 267.364 110.535 267.579C108.734 267.795 107.086 266.17 106.854 263.95L106.202 257.687L105.882 254.555L105.652 251.407" fill="white"/>
<path d="M112.2 250.881L112.425 253.979L112.742 257.065L113.384 263.238C113.612 265.42 112.336 267.364 110.535 267.579C108.734 267.795 107.086 266.17 106.854 263.95L106.202 257.687L105.882 254.555L105.652 251.407" stroke="#00041A" stroke-width="1.11584" stroke-linecap="round" stroke-linejoin="round"/>
<path fill-rule="evenodd" clip-rule="evenodd" d="M121.295 227.576L124.077 227.524C125.064 227.506 126.004 227.649 126.86 227.93C127.716 228.21 128.481 228.627 129.157 229.166C130.494 230.241 131.356 231.785 131.431 233.664L131.603 238.046C131.634 238.776 131.655 239.506 131.694 240.237L131.854 242.434C132.129 246.193 129.161 249.507 125.228 249.835L122.027 244.175" fill="white"/>
<path fill-rule="evenodd" clip-rule="evenodd" d="M124.143 226.983C127.048 226.935 130.775 226.915 130.775 226.915C130.775 226.915 130.773 227.22 130.769 227.706C130.767 227.949 130.764 228.238 130.762 228.557C130.771 228.877 130.781 229.227 130.792 229.592C130.838 231.052 130.892 232.746 130.922 233.683L131.095 238.071C131.126 238.802 131.147 239.533 131.186 240.265L131.347 242.466C131.622 246.23 128.911 249.527 125.296 249.83L124.872 243.99" fill="white"/>
<path d="M124.143 226.983C127.048 226.935 130.775 226.915 130.775 226.915C130.775 226.915 130.773 227.22 130.769 227.706C130.767 227.949 130.764 228.238 130.762 228.557C130.771 228.877 130.781 229.227 130.792 229.592C130.838 231.052 130.892 232.746 130.922 233.683L131.095 238.071C131.126 238.802 131.147 239.533 131.186 240.265L131.347 242.466C131.622 246.23 128.911 249.527 125.296 249.83L124.872 243.99" stroke="#00041A" stroke-width="1.11584" stroke-linecap="round" stroke-linejoin="round"/>
<path fill-rule="evenodd" clip-rule="evenodd" d="M124.815 243.212L125.292 249.78C125.369 250.841 125.805 251.772 126.447 252.413C127.081 253.055 127.965 253.409 128.862 253.328C129.772 253.246 130.524 252.746 131.074 252.01C131.617 251.273 131.915 250.298 131.84 249.255L131.315 242.032L131.183 240.226L131.109 238.425L130.968 234.824" fill="white"/>
<path d="M124.815 243.212L125.292 249.78C125.369 250.841 125.805 251.772 126.447 252.413C127.081 253.055 127.965 253.409 128.862 253.328C129.772 253.246 130.524 252.746 131.074 252.01C131.617 251.273 131.915 250.298 131.84 249.255L131.315 242.032L131.183 240.226L131.109 238.425L130.968 234.824" stroke="#00041A" stroke-width="1.11584" stroke-linecap="round" stroke-linejoin="round"/>
<path fill-rule="evenodd" clip-rule="evenodd" d="M105.652 251.408C105.845 254.664 106.232 257.887 106.559 261.12C106.79 263.334 105.516 265.295 103.714 265.499C101.911 265.703 100.259 264.044 100.025 261.792C99.6933 258.511 99.3018 255.244 99.1045 251.934" fill="white"/>
<path d="M105.652 251.408C105.845 254.664 106.232 257.887 106.559 261.12C106.79 263.334 105.516 265.295 103.714 265.499C101.911 265.703 100.259 264.044 100.025 261.792C99.6933 258.511 99.3018 255.244 99.1045 251.934" stroke="#00041A" stroke-width="1.11584" stroke-linecap="round" stroke-linejoin="round"/>
<path fill-rule="evenodd" clip-rule="evenodd" d="M94.9364 228.065L134.152 227.337L134.128 222.048L134.113 219.403C134.107 218.522 134.093 217.638 134.136 216.766L134.302 211.518L134.383 208.894C134.399 208.457 134.403 208.017 134.428 207.583L134.52 206.284L134.948 200.13L135.053 198.592C135.093 198.08 135.161 197.577 135.213 197.07L135.548 194.031L135.879 190.992C135.938 190.487 135.979 189.976 136.053 189.476L136.282 187.98L137.188 181.994C138.598 174.098 140.439 166.388 142.896 159.074C145.345 151.763 152.134 140.742 159.63 127.856C167.126 114.969 175.613 105.31 165.108 93.2842C154.604 81.2586 140.313 92.0696 138.98 93.2842L137.414 94.698L137.025 95.0534L136.653 95.419L135.911 96.1514L134.432 97.6212L133.695 98.3585C133.452 98.6056 133.227 98.8628 132.993 99.1149L130.218 102.165C129.337 103.205 128.481 104.259 127.617 105.31L126.971 106.099C126.754 106.362 126.541 106.626 126.345 106.898L125.142 108.518L123.944 110.142C123.549 110.685 123.136 111.221 122.779 111.78L120.572 115.107L120.023 115.941L119.75 116.358L119.497 116.782L118.489 118.481C113.083 127.536 108.935 136.999 105.729 146.543C102.521 156.095 100.241 165.734 98.533 175.349L97.4372 182.554L97.1664 184.355C97.079 184.956 97.0278 185.553 96.9569 186.152L96.5612 189.744L96.1694 193.337C96.1085 193.935 96.0308 194.535 95.9841 195.132L95.8578 196.921L95.3602 204.077L95.257 205.587C95.2281 206.09 95.2208 206.589 95.2019 207.091L95.1056 210.096L94.9192 216.107C94.8744 217.112 94.8875 218.106 94.8922 219.102L94.9055 222.09L94.9364 228.065Z" fill="#00041A"/>
<path fill-rule="evenodd" clip-rule="evenodd" d="M219.389 47.2252C219.389 62.7032 206.842 75.2503 191.364 75.2503C175.886 75.2503 163.339 62.7032 163.339 47.2252C163.339 31.7473 175.886 19.2002 191.364 19.2002C206.842 19.2002 219.389 31.7473 219.389 47.2252Z" fill="#00041A"/>
<path fill-rule="evenodd" clip-rule="evenodd" d="M210.344 58.2617C210.344 60.6027 208.446 62.5004 206.105 62.5004C203.764 62.5004 201.867 60.6027 201.867 58.2617C201.867 55.9207 203.764 54.0229 206.105 54.0229C208.446 54.0229 210.344 55.9207 210.344 58.2617Z" fill="white"/>
<path fill-rule="evenodd" clip-rule="evenodd" d="M206.105 54.5794C204.075 54.5794 202.423 56.2311 202.423 58.2616C202.423 60.292 204.075 61.9438 206.105 61.9438C208.136 61.9438 209.788 60.292 209.788 58.2616C209.788 56.2311 208.136 54.5794 206.105 54.5794ZM206.105 63.0568C203.461 63.0568 201.31 60.9056 201.31 58.2616C201.31 55.6175 203.461 53.4663 206.105 53.4663C208.749 53.4663 210.901 55.6175 210.901 58.2616C210.901 60.9056 208.749 63.0568 206.105 63.0568Z" fill="#00041A"/>
<path fill-rule="evenodd" clip-rule="evenodd" d="M191.885 85.9473C186.61 85.9473 181.747 81.9019 181.747 77.0722L186.23 60.4703C186.23 55.6405 184.941 51.7251 190.216 51.7251H195.781C201.056 51.7251 199.767 55.6405 199.767 60.4703V77.2021C199.767 82.0319 197.16 85.9473 191.885 85.9473Z" fill="white"/>
<path fill-rule="evenodd" clip-rule="evenodd" d="M182.304 77.1444C182.352 81.5456 186.809 85.3907 191.885 85.3907C197.286 85.3907 199.21 81.1608 199.21 77.202V60.4702C199.21 59.622 199.249 58.8162 199.286 58.0368C199.388 55.8922 199.477 54.0404 198.592 53.1124C198.059 52.5534 197.139 52.2815 195.781 52.2815H190.216C188.858 52.2815 187.938 52.5534 187.405 53.1124C186.52 54.0404 186.608 55.8922 186.711 58.0368C186.748 58.8162 186.786 59.622 186.786 60.4702V60.5442L182.304 77.1444ZM191.885 86.5037C186.188 86.5037 181.191 82.0963 181.191 77.072V76.9983L185.673 60.3967C185.671 59.6014 185.634 58.8332 185.599 58.0896C185.485 55.6899 185.386 53.6174 186.6 52.3444C187.354 51.553 188.537 51.1685 190.216 51.1685H195.781C197.46 51.1685 198.643 51.553 199.397 52.3444C200.611 53.6174 200.512 55.6899 200.398 58.0896C200.361 58.8562 200.323 59.6487 200.323 60.4702V77.202C200.323 82.8526 197.011 86.5037 191.885 86.5037Z" fill="#00041A"/>
<path fill-rule="evenodd" clip-rule="evenodd" d="M195.113 71.459C190.253 71.459 185.866 68.5762 183.939 64.1152L183.758 63.6964C182.469 60.7131 182.419 57.4068 183.617 54.386C184.815 51.3652 187.118 48.9917 190.101 47.7028C191.638 47.0388 193.26 46.7021 194.921 46.7021C199.781 46.7021 204.167 49.5849 206.095 54.046L206.276 54.4648C208.936 60.623 206.091 67.7977 199.932 70.4584C198.395 71.1223 196.774 71.459 195.113 71.459Z" fill="white"/>
<path fill-rule="evenodd" clip-rule="evenodd" d="M194.921 46.1455H194.921C193.183 46.1455 191.488 46.4978 189.88 47.192C186.761 48.5397 184.353 51.0218 183.1 54.1806C181.847 57.3397 181.899 60.7973 183.247 63.9169L183.428 64.336C185.444 69.001 190.03 72.0154 195.113 72.0154C196.85 72.0154 198.546 71.6634 200.153 70.9689C203.273 69.6213 205.681 67.1392 206.934 63.9804C208.187 60.8213 208.134 57.3636 206.786 54.244L206.606 53.8252C204.59 49.1599 200.004 46.1455 194.921 46.1455ZM194.921 47.2586C199.413 47.2586 203.689 49.8809 205.584 54.2668L205.765 54.6853C208.308 60.5714 205.598 67.4044 199.712 69.9474C198.212 70.5955 196.65 70.9024 195.113 70.9024C190.621 70.9024 186.345 68.28 184.45 63.8944L184.269 63.4756C181.726 57.5895 184.436 50.7566 190.322 48.2138C191.822 47.5655 193.384 47.2586 194.921 47.2586Z" fill="#00041A"/>
<path fill-rule="evenodd" clip-rule="evenodd" d="M183.718 62.5004C181.377 62.5004 179.479 60.6027 179.479 58.2617C179.479 55.9207 181.377 54.0229 183.718 54.0229C184.01 54.0229 184.296 54.0527 184.572 54.1092" fill="white"/>
<path fill-rule="evenodd" clip-rule="evenodd" d="M183.718 63.0568C181.074 63.0568 178.922 60.9056 178.922 58.2616C178.922 55.6175 181.074 53.4663 183.718 53.4663C184.042 53.4663 184.367 53.4991 184.683 53.5637C184.985 53.6255 185.179 53.9196 185.117 54.2207C185.056 54.5215 184.761 54.7157 184.46 54.6542C184.218 54.6047 183.968 54.5794 183.718 54.5794C181.687 54.5794 180.035 56.2311 180.035 58.2616C180.035 60.292 181.687 61.9438 183.718 61.9438C184.025 61.9438 184.274 62.1931 184.274 62.5003C184.274 62.8075 184.025 63.0568 183.718 63.0568Z" fill="#00041A"/>
<path d="M186.435 55.0955C188.586 55.0955 190.33 53.3514 190.33 51.1999C190.33 49.0483 188.586 47.3042 186.435 47.3042C184.283 47.3042 182.539 49.0483 182.539 51.1999C182.539 53.3514 184.283 55.0955 186.435 55.0955Z" fill="#00041A"/>
<path d="M192.835 51.7566C194.986 51.7566 196.731 50.0125 196.731 47.861C196.731 45.7095 194.986 43.9653 192.835 43.9653C190.683 43.9653 188.939 45.7095 188.939 47.861C188.939 50.0125 190.683 51.7566 192.835 51.7566Z" fill="#00041A"/>
<path d="M200.348 51.7566C202.499 51.7566 204.243 50.0125 204.243 47.861C204.243 45.7095 202.499 43.9653 200.348 43.9653C198.196 43.9653 196.452 45.7095 196.452 47.861C196.452 50.0125 198.196 51.7566 200.348 51.7566Z" fill="#00041A"/>
<path d="M206.748 54.8172C208.899 54.8172 210.643 53.073 210.643 50.9215C210.643 48.77 208.899 47.0259 206.748 47.0259C204.596 47.0259 202.852 48.77 202.852 50.9215C202.852 53.073 204.596 54.8172 206.748 54.8172Z" fill="#00041A"/>
<path fill-rule="evenodd" clip-rule="evenodd" d="M196.771 63.1628H198.875C199.455 63.1628 199.885 62.3194 199.755 61.4348L198.869 55.3857C198.664 53.9818 197.405 53.9034 197.128 55.2769L195.91 61.326C195.727 62.2362 196.161 63.1628 196.771 63.1628Z" fill="#4E66DE"/>
<path fill-rule="evenodd" clip-rule="evenodd" d="M200.279 72.3614L197.869 74.772C197.302 75.3383 196.384 75.3383 195.817 74.772L193.407 72.3614C192.841 71.7952 192.841 70.8769 193.407 70.3104L195.817 67.8998C196.384 67.3335 197.302 67.3335 197.869 67.8998L200.279 70.3104C200.845 70.8769 200.845 71.7952 200.279 72.3614Z" fill="#00041A"/>
<path fill-rule="evenodd" clip-rule="evenodd" d="M200.915 64.2783C201.076 64.2783 201.229 64.3482 201.335 64.47C201.44 64.5919 201.488 64.7536 201.466 64.913C201.364 65.626 200.93 66.7207 199.968 67.4809L199.967 68.2263C199.967 69.5614 198.881 70.6474 197.546 70.6474C196.211 70.6474 195.125 69.5614 195.125 68.2263L195.125 67.8201C193.802 67.0843 193.236 65.7412 193.119 64.913C193.096 64.7536 193.144 64.5919 193.249 64.47C193.355 64.3482 193.508 64.2783 193.67 64.2783H200.915ZM198.79 66.5044H196.174V68.0908C196.174 68.812 196.761 69.3989 197.482 69.3989C198.203 69.3989 198.79 68.812 198.79 68.0908V66.5044Z" fill="#00041A"/>
<path fill-rule="evenodd" clip-rule="evenodd" d="M192 57.5907C191.827 57.5907 191.655 57.5095 191.547 57.3567C191.368 57.1063 191.427 56.759 191.677 56.5806L193.46 55.3123L191.698 54.1723C191.439 54.0053 191.366 53.6608 191.533 53.4026C191.7 53.1447 192.044 53.0709 192.302 53.2376L194.753 54.8231C194.908 54.9233 195.003 55.0936 195.007 55.2781C195.011 55.4623 194.924 55.6368 194.773 55.7439L192.323 57.4875C192.225 57.5573 192.112 57.5907 192 57.5907Z" fill="#00041A"/>
<path fill-rule="evenodd" clip-rule="evenodd" d="M202.328 57.5903C202.216 57.5903 202.104 57.557 202.006 57.4871L199.555 55.7435C199.405 55.6364 199.317 55.4619 199.321 55.2777C199.325 55.0932 199.421 54.9229 199.575 54.8228L202.026 53.2372C202.284 53.0703 202.629 53.1443 202.796 53.4022C202.963 53.6605 202.889 54.005 202.631 54.1719L200.869 55.3119L202.651 56.5803C202.902 56.7586 202.96 57.1059 202.782 57.3563C202.673 57.5091 202.502 57.5903 202.328 57.5903Z" fill="#00041A"/>
<path d="M462.538 388.384C462.538 392.59 457.045 396 450.269 396C443.493 396 438 392.59 438 388.384C438 384.179 443.493 380.769 450.269 380.769C457.045 380.769 462.538 384.179 462.538 388.384Z" fill="#00041A"/>
<rect x="438" y="385.121" width="24.5385" height="3.36264" fill="#00041A"/>
<path d="M462.038 385.615C462.038 387.482 460.818 389.249 458.681 390.575C456.552 391.897 453.579 392.731 450.269 392.731C446.959 392.731 443.986 391.897 441.857 390.575C439.721 389.249 438.5 387.482 438.5 385.615C438.5 383.749 439.721 381.982 441.857 380.655C443.986 379.334 446.959 378.5 450.269 378.5C453.579 378.5 456.552 379.334 458.681 380.655C460.818 381.982 462.038 383.749 462.038 385.615Z" fill="white" stroke="#00041A"/>
<path d="M330.538 374.384C330.538 378.59 325.045 382 318.269 382C311.493 382 306 378.59 306 374.384C306 370.179 311.493 366.769 318.269 366.769C325.045 366.769 330.538 370.179 330.538 374.384Z" fill="#00041A"/>
<rect x="306" y="371.121" width="24.5385" height="3.36264" fill="#00041A"/>
<path d="M330.038 371.615C330.038 373.482 328.818 375.249 326.681 376.575C324.552 377.897 321.579 378.731 318.269 378.731C314.959 378.731 311.986 377.897 309.857 376.575C307.721 375.249 306.5 373.482 306.5 371.615C306.5 369.749 307.721 367.982 309.857 366.655C311.986 365.334 314.959 364.5 318.269 364.5C321.579 364.5 324.552 365.334 326.681 366.655C328.818 367.982 330.038 369.749 330.038 371.615Z" fill="white" stroke="#00041A"/>
<path d="M330.538 369.384C330.538 373.59 325.045 377 318.269 377C311.493 377 306 373.59 306 369.384C306 365.179 311.493 361.769 318.269 361.769C325.045 361.769 330.538 365.179 330.538 369.384Z" fill="#00041A"/>
<rect x="306" y="366.121" width="24.5385" height="3.36264" fill="#00041A"/>
<path d="M330.038 366.615C330.038 368.482 328.818 370.249 326.681 371.575C324.552 372.897 321.579 373.731 318.269 373.731C314.959 373.731 311.986 372.897 309.857 371.575C307.721 370.249 306.5 368.482 306.5 366.615C306.5 364.749 307.721 362.982 309.857 361.655C311.986 360.334 314.959 359.5 318.269 359.5C321.579 359.5 324.552 360.334 326.681 361.655C328.818 362.982 330.038 364.749 330.038 366.615Z" fill="white" stroke="#00041A"/>
<path d="M330.538 364.384C330.538 368.59 325.045 372 318.269 372C311.493 372 306 368.59 306 364.384C306 360.179 311.493 356.769 318.269 356.769C325.045 356.769 330.538 360.179 330.538 364.384Z" fill="#00041A"/>
<rect x="306" y="361.121" width="24.5385" height="3.36264" fill="#00041A"/>
<path d="M330.038 361.615C330.038 363.482 328.818 365.249 326.681 366.575C324.552 367.897 321.579 368.731 318.269 368.731C314.959 368.731 311.986 367.897 309.857 366.575C307.721 365.249 306.5 363.482 306.5 361.615C306.5 359.749 307.721 357.982 309.857 356.655C311.986 355.334 314.959 354.5 318.269 354.5C321.579 354.5 324.552 355.334 326.681 356.655C328.818 357.982 330.038 359.749 330.038 361.615Z" fill="white" stroke="#00041A"/>
<path d="M330.538 359.384C330.538 363.59 325.045 367 318.269 367C311.493 367 306 363.59 306 359.384C306 355.179 311.493 351.769 318.269 351.769C325.045 351.769 330.538 355.179 330.538 359.384Z" fill="#00041A"/>
<rect x="306" y="356.121" width="24.5385" height="3.36264" fill="#00041A"/>
<path d="M330.038 356.615C330.038 358.482 328.818 360.249 326.681 361.575C324.552 362.897 321.579 363.731 318.269 363.731C314.959 363.731 311.986 362.897 309.857 361.575C307.721 360.249 306.5 358.482 306.5 356.615C306.5 354.749 307.721 352.982 309.857 351.655C311.986 350.334 314.959 349.5 318.269 349.5C321.579 349.5 324.552 350.334 326.681 351.655C328.818 352.982 330.038 354.749 330.038 356.615Z" fill="white" stroke="#00041A"/>
<path d="M330.538 354.384C330.538 358.59 325.045 362 318.269 362C311.493 362 306 358.59 306 354.384C306 350.179 311.493 346.769 318.269 346.769C325.045 346.769 330.538 350.179 330.538 354.384Z" fill="#00041A"/>
<rect x="306" y="351.121" width="24.5385" height="3.36264" fill="#00041A"/>
<path d="M330.038 351.615C330.038 353.482 328.818 355.249 326.681 356.575C324.552 357.897 321.579 358.731 318.269 358.731C314.959 358.731 311.986 357.897 309.857 356.575C307.721 355.249 306.5 353.482 306.5 351.615C306.5 349.749 307.721 347.982 309.857 346.655C311.986 345.334 314.959 344.5 318.269 344.5C321.579 344.5 324.552 345.334 326.681 346.655C328.818 347.982 330.038 349.749 330.038 351.615Z" fill="white" stroke="#00041A"/>
<path d="M330.538 349.384C330.538 353.59 325.045 357 318.269 357C311.493 357 306 353.59 306 349.384C306 345.179 311.493 341.769 318.269 341.769C325.045 341.769 330.538 345.179 330.538 349.384Z" fill="#00041A"/>
<rect x="306" y="346.121" width="24.5385" height="3.36264" fill="#00041A"/>
<path d="M330.038 346.615C330.038 348.482 328.818 350.249 326.681 351.575C324.552 352.897 321.579 353.731 318.269 353.731C314.959 353.731 311.986 352.897 309.857 351.575C307.721 350.249 306.5 348.482 306.5 346.615C306.5 344.749 307.721 342.982 309.857 341.655C311.986 340.334 314.959 339.5 318.269 339.5C321.579 339.5 324.552 340.334 326.681 341.655C328.818 342.982 330.038 344.749 330.038 346.615Z" fill="white" stroke="#00041A"/>
<path d="M330.538 344.384C330.538 348.59 325.045 352 318.269 352C311.493 352 306 348.59 306 344.384C306 340.179 311.493 336.769 318.269 336.769C325.045 336.769 330.538 340.179 330.538 344.384Z" fill="#00041A"/>
<rect x="306" y="341.121" width="24.5385" height="3.36264" fill="#00041A"/>
<path d="M330.038 341.615C330.038 343.482 328.818 345.249 326.681 346.575C324.552 347.897 321.579 348.731 318.269 348.731C314.959 348.731 311.986 347.897 309.857 346.575C307.721 345.249 306.5 343.482 306.5 341.615C306.5 339.749 307.721 337.982 309.857 336.655C311.986 335.334 314.959 334.5 318.269 334.5C321.579 334.5 324.552 335.334 326.681 336.655C328.818 337.982 330.038 339.749 330.038 341.615Z" fill="white" stroke="#00041A"/>
<path d="M330.538 339.384C330.538 343.59 325.045 347 318.269 347C311.493 347 306 343.59 306 339.384C306 335.179 311.493 331.769 318.269 331.769C325.045 331.769 330.538 335.179 330.538 339.384Z" fill="#00041A"/>
<rect x="306" y="336.121" width="24.5385" height="3.36264" fill="#00041A"/>
<path d="M330.038 336.615C330.038 338.482 328.818 340.249 326.681 341.575C324.552 342.897 321.579 343.731 318.269 343.731C314.959 343.731 311.986 342.897 309.857 341.575C307.721 340.249 306.5 338.482 306.5 336.615C306.5 334.749 307.721 332.982 309.857 331.655C311.986 330.334 314.959 329.5 318.269 329.5C321.579 329.5 324.552 330.334 326.681 331.655C328.818 332.982 330.038 334.749 330.038 336.615Z" fill="white" stroke="#00041A"/>
<path d="M462.538 383.384C462.538 387.59 457.045 391 450.269 391C443.493 391 438 387.59 438 383.384C438 379.179 443.493 375.769 450.269 375.769C457.045 375.769 462.538 379.179 462.538 383.384Z" fill="#00041A"/>
<rect x="438" y="380.121" width="24.5385" height="3.36264" fill="#00041A"/>
<path d="M462.038 380.615C462.038 382.482 460.818 384.249 458.681 385.575C456.552 386.897 453.579 387.731 450.269 387.731C446.959 387.731 443.986 386.897 441.857 385.575C439.721 384.249 438.5 382.482 438.5 380.615C438.5 378.749 439.721 376.982 441.857 375.655C443.986 374.334 446.959 373.5 450.269 373.5C453.579 373.5 456.552 374.334 458.681 375.655C460.818 376.982 462.038 378.749 462.038 380.615Z" fill="white" stroke="#00041A"/>
<path d="M462.538 378.384C462.538 382.59 457.045 386 450.269 386C443.493 386 438 382.59 438 378.384C438 374.179 443.493 370.769 450.269 370.769C457.045 370.769 462.538 374.179 462.538 378.384Z" fill="#00041A"/>
<rect x="438" y="375.121" width="24.5385" height="3.36264" fill="#00041A"/>
<path d="M462.038 375.615C462.038 377.482 460.818 379.249 458.681 380.575C456.552 381.897 453.579 382.731 450.269 382.731C446.959 382.731 443.986 381.897 441.857 380.575C439.721 379.249 438.5 377.482 438.5 375.615C438.5 373.749 439.721 371.982 441.857 370.655C443.986 369.334 446.959 368.5 450.269 368.5C453.579 368.5 456.552 369.334 458.681 370.655C460.818 371.982 462.038 373.749 462.038 375.615Z" fill="white" stroke="#00041A"/>
<path d="M462.538 373.384C462.538 377.59 457.045 381 450.269 381C443.493 381 438 377.59 438 373.384C438 369.179 443.493 365.769 450.269 365.769C457.045 365.769 462.538 369.179 462.538 373.384Z" fill="#00041A"/>
<rect x="438" y="370.121" width="24.5385" height="3.36264" fill="#00041A"/>
<path d="M462.038 370.615C462.038 372.482 460.818 374.249 458.681 375.575C456.552 376.897 453.579 377.731 450.269 377.731C446.959 377.731 443.986 376.897 441.857 375.575C439.721 374.249 438.5 372.482 438.5 370.615C438.5 368.749 439.721 366.982 441.857 365.655C443.986 364.334 446.959 363.5 450.269 363.5C453.579 363.5 456.552 364.334 458.681 365.655C460.818 366.982 462.038 368.749 462.038 370.615Z" fill="white" stroke="#00041A"/>
<path d="M250.538 381.384C250.538 385.59 245.045 389 238.269 389C231.493 389 226 385.59 226 381.384C226 377.179 231.493 373.769 238.269 373.769C245.045 373.769 250.538 377.179 250.538 381.384Z" fill="#00041A"/>
<rect x="226" y="378.121" width="24.5385" height="3.36264" fill="#00041A"/>
<path d="M250.038 378.615C250.038 380.482 248.818 382.249 246.681 383.575C244.552 384.897 241.579 385.731 238.269 385.731C234.959 385.731 231.986 384.897 229.857 383.575C227.721 382.249 226.5 380.482 226.5 378.615C226.5 376.749 227.721 374.982 229.857 373.655C231.986 372.334 234.959 371.5 238.269 371.5C241.579 371.5 244.552 372.334 246.681 373.655C248.818 374.982 250.038 376.749 250.038 378.615Z" fill="white" stroke="#00041A"/>
<path d="M250.538 376.384C250.538 380.59 245.045 384 238.269 384C231.493 384 226 380.59 226 376.384C226 372.179 231.493 368.769 238.269 368.769C245.045 368.769 250.538 372.179 250.538 376.384Z" fill="#00041A"/>
<rect x="226" y="373.121" width="24.5385" height="3.36264" fill="#00041A"/>
<path d="M250.038 373.615C250.038 375.482 248.818 377.249 246.681 378.575C244.552 379.897 241.579 380.731 238.269 380.731C234.959 380.731 231.986 379.897 229.857 378.575C227.721 377.249 226.5 375.482 226.5 373.615C226.5 371.749 227.721 369.982 229.857 368.655C231.986 367.334 234.959 366.5 238.269 366.5C241.579 366.5 244.552 367.334 246.681 368.655C248.818 369.982 250.038 371.749 250.038 373.615Z" fill="white" stroke="#00041A"/>
<path d="M250.538 371.384C250.538 375.59 245.045 379 238.269 379C231.493 379 226 375.59 226 371.384C226 367.179 231.493 363.769 238.269 363.769C245.045 363.769 250.538 367.179 250.538 371.384Z" fill="#00041A"/>
<rect x="226" y="368.121" width="24.5385" height="3.36264" fill="#00041A"/>
<path d="M250.038 368.615C250.038 370.482 248.818 372.249 246.681 373.575C244.552 374.897 241.579 375.731 238.269 375.731C234.959 375.731 231.986 374.897 229.857 373.575C227.721 372.249 226.5 370.482 226.5 368.615C226.5 366.749 227.721 364.982 229.857 363.655C231.986 362.334 234.959 361.5 238.269 361.5C241.579 361.5 244.552 362.334 246.681 363.655C248.818 364.982 250.038 366.749 250.038 368.615Z" fill="white" stroke="#00041A"/>
<path d="M494.538 391.384C494.538 395.59 489.045 399 482.269 399C475.493 399 470 395.59 470 391.384C470 387.179 475.493 383.769 482.269 383.769C489.045 383.769 494.538 387.179 494.538 391.384Z" fill="#00041A"/>
<rect x="470" y="388.121" width="24.5385" height="3.36264" fill="#00041A"/>
<path d="M494.038 388.615C494.038 390.482 492.818 392.249 490.681 393.575C488.552 394.897 485.579 395.731 482.269 395.731C478.959 395.731 475.986 394.897 473.857 393.575C471.721 392.249 470.5 390.482 470.5 388.615C470.5 386.749 471.721 384.982 473.857 383.655C475.986 382.334 478.959 381.5 482.269 381.5C485.579 381.5 488.552 382.334 490.681 383.655C492.818 384.982 494.038 386.749 494.038 388.615Z" fill="white" stroke="#00041A"/>
<path d="M362.538 386.384C362.538 390.59 357.045 394 350.269 394C343.493 394 338 390.59 338 386.384C338 382.179 343.493 378.769 350.269 378.769C357.045 378.769 362.538 382.179 362.538 386.384Z" fill="#00041A"/>
<rect x="338" y="383.121" width="24.5385" height="3.36264" fill="#00041A"/>
<path d="M362.038 383.615C362.038 385.482 360.818 387.249 358.681 388.575C356.552 389.897 353.579 390.731 350.269 390.731C346.959 390.731 343.986 389.897 341.857 388.575C339.721 387.249 338.5 385.482 338.5 383.615C338.5 381.749 339.721 379.982 341.857 378.655C343.986 377.334 346.959 376.5 350.269 376.5C353.579 376.5 356.552 377.334 358.681 378.655C360.818 379.982 362.038 381.749 362.038 383.615Z" fill="white" stroke="#00041A"/>
<path d="M362.538 381.384C362.538 385.59 357.045 389 350.269 389C343.493 389 338 385.59 338 381.384C338 377.179 343.493 373.769 350.269 373.769C357.045 373.769 362.538 377.179 362.538 381.384Z" fill="#00041A"/>
<rect x="338" y="378.121" width="24.5385" height="3.36264" fill="#00041A"/>
<path d="M362.038 378.615C362.038 380.482 360.818 382.249 358.681 383.575C356.552 384.897 353.579 385.731 350.269 385.731C346.959 385.731 343.986 384.897 341.857 383.575C339.721 382.249 338.5 380.482 338.5 378.615C338.5 376.749 339.721 374.982 341.857 373.655C343.986 372.334 346.959 371.5 350.269 371.5C353.579 371.5 356.552 372.334 358.681 373.655C360.818 374.982 362.038 376.749 362.038 378.615Z" fill="white" stroke="#00041A"/>
<path d="M362.538 376.384C362.538 380.59 357.045 384 350.269 384C343.493 384 338 380.59 338 376.384C338 372.179 343.493 368.769 350.269 368.769C357.045 368.769 362.538 372.179 362.538 376.384Z" fill="#00041A"/>
<rect x="338" y="373.121" width="24.5385" height="3.36264" fill="#00041A"/>
<path d="M362.038 373.615C362.038 375.482 360.818 377.249 358.681 378.575C356.552 379.897 353.579 380.731 350.269 380.731C346.959 380.731 343.986 379.897 341.857 378.575C339.721 377.249 338.5 375.482 338.5 373.615C338.5 371.749 339.721 369.982 341.857 368.655C343.986 367.334 346.959 366.5 350.269 366.5C353.579 366.5 356.552 367.334 358.681 368.655C360.818 369.982 362.038 371.749 362.038 373.615Z" fill="white" stroke="#00041A"/>
<path d="M362.538 371.384C362.538 375.59 357.045 379 350.269 379C343.493 379 338 375.59 338 371.384C338 367.179 343.493 363.769 350.269 363.769C357.045 363.769 362.538 367.179 362.538 371.384Z" fill="#00041A"/>
<rect x="338" y="368.121" width="24.5385" height="3.36264" fill="#00041A"/>
<path d="M362.038 368.615C362.038 370.482 360.818 372.249 358.681 373.575C356.552 374.897 353.579 375.731 350.269 375.731C346.959 375.731 343.986 374.897 341.857 373.575C339.721 372.249 338.5 370.482 338.5 368.615C338.5 366.749 339.721 364.982 341.857 363.655C343.986 362.334 346.959 361.5 350.269 361.5C353.579 361.5 356.552 362.334 358.681 363.655C360.818 364.982 362.038 366.749 362.038 368.615Z" fill="white" stroke="#00041A"/>
<path d="M362.538 366.384C362.538 370.59 357.045 374 350.269 374C343.493 374 338 370.59 338 366.384C338 362.179 343.493 358.769 350.269 358.769C357.045 358.769 362.538 362.179 362.538 366.384Z" fill="#00041A"/>
<rect x="338" y="363.121" width="24.5385" height="3.36264" fill="#00041A"/>
<path d="M362.038 363.615C362.038 365.482 360.818 367.249 358.681 368.575C356.552 369.897 353.579 370.731 350.269 370.731C346.959 370.731 343.986 369.897 341.857 368.575C339.721 367.249 338.5 365.482 338.5 363.615C338.5 361.749 339.721 359.982 341.857 358.655C343.986 357.334 346.959 356.5 350.269 356.5C353.579 356.5 356.552 357.334 358.681 358.655C360.818 359.982 362.038 361.749 362.038 363.615Z" fill="white" stroke="#00041A"/>
</svg>
