<svg width="184" height="26" viewBox="0 0 184 26" fill="none" xmlns="http://www.w3.org/2000/svg">
<path d="M12 8.68359L24 26.0001H0L12 8.68359Z" fill="#DADCE5"/>
<path d="M12 8.68359L24 2.00005H0L12 8.68359Z" fill="#B2BCEB"/>
<path d="M12 8.68355L24 2L24 26L12 8.68355Z" fill="#F0F1F5"/>
<path d="M12 8.68355L2.00275e-06 2L9.53674e-07 26L12 8.68355Z" fill="#9BA6DE"/>
<path d="M45.9611 7.29085H39.7019V25.4878H34.2592V7.29085H28V2.65122H45.9611V7.29085Z" fill="#F0F1F5"/>
<path d="M53.8782 18.5886C54.0999 19.5527 54.5535 20.3059 55.2389 20.8482C55.9444 21.3905 56.9725 21.6616 58.3231 21.6616C59.1093 21.6616 59.8551 21.5713 60.5607 21.3905C61.2864 21.1896 62.1129 20.8582 63.0402 20.3963L64.4009 24.4334C63.3526 25.0158 62.3145 25.4175 61.2864 25.6385C60.2583 25.8795 59.0287 26 57.5974 26C55.6017 26 53.8983 25.6284 52.4873 24.8853C51.0963 24.1221 50.038 23.0576 49.3123 21.6918C48.5866 20.326 48.2238 18.7393 48.2238 16.9316C48.2238 15.0436 48.5967 13.4268 49.3425 12.0811C50.0884 10.7153 51.0963 9.691 52.3663 9.00811C53.6363 8.30514 55.0574 7.95365 56.6298 7.95365C59.1496 7.95365 61.1251 8.68675 62.5564 10.153C63.9876 11.5991 64.7032 13.718 64.7032 16.5098V18.5886H53.8782ZM56.6298 12.292C55.9041 12.292 55.3094 12.4728 54.8458 12.8343C54.4023 13.1958 54.0898 13.8185 53.9084 14.7022H59.1698C59.0891 13.8586 58.8371 13.246 58.4138 12.8644C58.0107 12.4828 57.416 12.292 56.6298 12.292Z" fill="#F0F1F5"/>
<path d="M77.7765 8.07416C80.0544 8.07416 81.7578 8.64658 82.8867 9.79142C84.0155 10.9363 84.58 12.754 84.58 15.2445V25.4878H79.3186V15.2445C79.3186 14.421 79.107 13.7984 78.6836 13.3766C78.2805 12.9347 77.585 12.7138 76.5972 12.7138C75.4281 12.7138 74.2286 13.1958 72.999 14.1599V25.4878H67.7376V8.43569H72.999V9.79142C73.7448 9.20896 74.5008 8.77713 75.2668 8.49594C76.053 8.21475 76.8895 8.07416 77.7765 8.07416Z" fill="#F0F1F5"/>
<path d="M105.335 0V25.4878H100.073V24.3731C98.642 25.4577 97.1099 26 95.4771 26C93.945 26 92.5844 25.6686 91.395 25.0058C90.2258 24.3229 89.2985 23.3086 88.6131 21.9629C87.9479 20.5971 87.6153 18.9301 87.6153 16.9618C87.6153 15.0135 87.9479 13.3666 88.6131 12.0209C89.2985 10.6551 90.2258 9.64079 91.395 8.97798C92.5844 8.29509 93.945 7.95365 95.4771 7.95365C97.1099 7.95365 98.642 8.49594 100.073 9.58053V0H105.335ZM96.6261 21.3604C97.7751 21.3604 98.9242 20.9486 100.073 20.1251V13.8285C98.9242 13.005 97.7751 12.5933 96.6261 12.5933C95.4569 12.5933 94.5699 12.9649 93.9652 13.708C93.3806 14.4511 93.0883 15.5357 93.0883 16.9618C93.0883 18.4079 93.3806 19.5025 93.9652 20.2457C94.5699 20.9888 95.4569 21.3604 96.6261 21.3604Z" fill="#F0F1F5"/>
<path d="M114.176 18.5886C114.398 19.5527 114.852 20.3059 115.537 20.8482C116.242 21.3905 117.271 21.6616 118.621 21.6616C119.407 21.6616 120.153 21.5713 120.859 21.3905C121.584 21.1896 122.411 20.8582 123.338 20.3963L124.699 24.4334C123.651 25.0158 122.612 25.4175 121.584 25.6385C120.556 25.8795 119.327 26 117.895 26C115.9 26 114.196 25.6284 112.785 24.8853C111.394 24.1221 110.336 23.0576 109.61 21.6918C108.885 20.326 108.522 18.7393 108.522 16.9316C108.522 15.0436 108.895 13.4268 109.641 12.0811C110.386 10.7153 111.394 9.691 112.664 9.00811C113.934 8.30514 115.355 7.95365 116.928 7.95365C119.448 7.95365 121.423 8.68675 122.854 10.153C124.286 11.5991 125.001 13.718 125.001 16.5098V18.5886H114.176ZM116.928 12.292C116.202 12.292 115.607 12.4728 115.144 12.8343C114.7 13.1958 114.388 13.8185 114.206 14.7022H119.468C119.387 13.8586 119.135 13.246 118.712 12.8644C118.309 12.4828 117.714 12.292 116.928 12.292Z" fill="#F0F1F5"/>
<path d="M138.649 8.07416V12.7138H137.954C136.401 12.7138 134.849 13.2661 133.297 14.3708V25.4878H128.036V8.43569H133.297V9.94206C134.043 9.31943 134.789 8.85747 135.535 8.5562C136.301 8.23484 137.107 8.07416 137.954 8.07416H138.649Z" fill="#F0F1F5"/>
<path d="M141.678 1.17497H146.939V5.72422H141.678V1.17497ZM141.678 8.43569H146.939V25.4878H141.678V8.43569Z" fill="#F0F1F5"/>
<path d="M165.247 20.9085V25.4878H151.035V20.9085L158.474 13.0151H151.579V8.43569H164.582V13.0151L157.173 20.9085H165.247Z" fill="#F0F1F5"/>
<path d="M173.175 18.5886C173.397 19.5527 173.85 20.3059 174.536 20.8482C175.241 21.3905 176.269 21.6616 177.62 21.6616C178.406 21.6616 179.152 21.5713 179.857 21.3905C180.583 21.1896 181.41 20.8582 182.337 20.3963L183.698 24.4334C182.649 25.0158 181.611 25.4175 180.583 25.6385C179.555 25.8795 178.325 26 176.894 26C174.898 26 173.195 25.6284 171.784 24.8853C170.393 24.1221 169.335 23.0576 168.609 21.6918C167.883 20.326 167.521 18.7393 167.521 16.9316C167.521 15.0436 167.893 13.4268 168.639 12.0811C169.385 10.7153 170.393 9.691 171.663 9.00811C172.933 8.30514 174.354 7.95365 175.927 7.95365C178.446 7.95365 180.422 8.68675 181.853 10.153C183.284 11.5991 184 13.718 184 16.5098V18.5886H173.175ZM175.927 12.292C175.201 12.292 174.606 12.4728 174.143 12.8343C173.699 13.1958 173.387 13.8185 173.205 14.7022H178.467C178.386 13.8586 178.134 13.246 177.711 12.8644C177.307 12.4828 176.713 12.292 175.927 12.292Z" fill="#F0F1F5"/>
</svg>
